<svg width="24" height="22" viewBox="0 0 24 22" fill="none" xmlns="http://www.w3.org/2000/svg">
<path d="M22.75 7.20815H20.0796L16.0712 1.19023C15.9118 0.951182 15.6639 0.78527 15.3821 0.728994C15.1003 0.672717 14.8077 0.730686 14.5687 0.890147C14.3296 1.04961 14.1637 1.2975 14.1074 1.57929C14.0511 1.86108 14.1091 2.15368 14.2686 2.39273L17.4763 7.20815H6.357L9.568 2.39273C9.72746 2.15368 9.78542 1.86108 9.72915 1.57929C9.67287 1.2975 9.50696 1.04961 9.26791 0.890147C9.02886 0.730686 8.73626 0.672717 8.45447 0.728994C8.17268 0.78527 7.92479 0.951182 7.76533 1.19023L3.75375 7.20815H1.08333C0.796015 7.20815 0.520465 7.32228 0.317301 7.52545C0.114136 7.72861 0 8.00416 0 8.29148C0 8.5788 0.114136 8.85435 0.317301 9.05751C0.520465 9.26068 0.796015 9.37481 1.08333 9.37481H2.16667V18.0415C2.16667 18.9034 2.50908 19.7301 3.11857 20.3396C3.72806 20.9491 4.55471 21.2915 5.41666 21.2915H18.4167C19.2786 21.2915 20.1053 20.9491 20.7148 20.3396C21.3242 19.7301 21.6667 18.9034 21.6667 18.0415V9.37481H22.75C23.0373 9.37481 23.3129 9.26068 23.516 9.05751C23.7192 8.85435 23.8333 8.5788 23.8333 8.29148C23.8333 8.00416 23.7192 7.72861 23.516 7.52545C23.3129 7.32228 23.0373 7.20815 22.75 7.20815ZM19.5 18.0415C19.5 18.3288 19.3859 18.6043 19.1827 18.8075C18.9795 19.0107 18.704 19.1248 18.4167 19.1248H5.41666C5.12935 19.1248 4.8538 19.0107 4.65063 18.8075C4.44747 18.6043 4.33333 18.3288 4.33333 18.0415V9.37481H19.5V18.0415Z" fill="#4D4D4D"/>
</svg>
