<svg width="48" height="15" viewBox="0 0 48 15" fill="none" xmlns="http://www.w3.org/2000/svg">
<path d="M10.26 10.787C10.41 10.787 10.536 10.841 10.638 10.949L11.709 12.092C11.181 12.764 10.524 13.274 9.738 13.622C8.958 13.97 8.028 14.144 6.948 14.144C5.97 14.144 5.091 13.979 4.311 13.649C3.531 13.313 2.868 12.848 2.322 12.254C1.776 11.66 1.356 10.955 1.062 10.139C0.768 9.323 0.621 8.432 0.621 7.466C0.621 6.818 0.69 6.203 0.828 5.621C0.972 5.033 1.179 4.493 1.449 4.001C1.719 3.509 2.043 3.065 2.421 2.669C2.805 2.273 3.237 1.937 3.717 1.661C4.197 1.379 4.719 1.166 5.283 1.022C5.853 0.871999 6.459 0.796999 7.101 0.796999C7.581 0.796999 8.034 0.838999 8.46 0.922999C8.892 1.007 9.294 1.124 9.666 1.274C10.038 1.424 10.38 1.607 10.692 1.823C11.01 2.033 11.295 2.264 11.547 2.516L10.638 3.758C10.584 3.836 10.515 3.905 10.431 3.965C10.347 4.025 10.233 4.055 10.089 4.055C9.945 4.055 9.798 4.004 9.648 3.902C9.504 3.8 9.324 3.686 9.108 3.56C8.898 3.434 8.631 3.32 8.307 3.218C7.989 3.116 7.584 3.065 7.092 3.065C6.546 3.065 6.045 3.164 5.589 3.362C5.133 3.56 4.74 3.848 4.41 4.226C4.086 4.598 3.834 5.057 3.654 5.603C3.474 6.149 3.384 6.77 3.384 7.466C3.384 8.168 3.48 8.795 3.672 9.347C3.87 9.893 4.137 10.355 4.473 10.733C4.815 11.111 5.211 11.399 5.661 11.597C6.117 11.789 6.603 11.885 7.119 11.885C7.425 11.885 7.701 11.87 7.947 11.84C8.199 11.81 8.43 11.759 8.64 11.687C8.856 11.615 9.057 11.522 9.243 11.408C9.435 11.294 9.627 11.15 9.819 10.976C9.885 10.922 9.954 10.877 10.026 10.841C10.098 10.805 10.176 10.787 10.26 10.787ZM24.4202 0.940999V14H21.7022V8.375H15.9512V14H13.2332V0.940999H15.9512V6.485H21.7022V0.940999H24.4202ZM34.0491 9.041L32.6361 5.045C32.5521 4.835 32.4621 4.589 32.3661 4.307C32.2761 4.025 32.1891 3.719 32.1051 3.389C32.0211 3.725 31.9311 4.037 31.8351 4.325C31.7451 4.607 31.6581 4.853 31.5741 5.063L30.1701 9.041H34.0491ZM38.5851 14H36.4881C36.2541 14 36.0621 13.946 35.9121 13.838C35.7681 13.724 35.6601 13.58 35.5881 13.406L34.7061 10.913H29.5041L28.6221 13.406C28.5621 13.556 28.4571 13.694 28.3071 13.82C28.1571 13.94 27.9681 14 27.7401 14H25.6251L30.7281 0.940999H33.4911L38.5851 14ZM47.7536 3.119H43.9376V14H41.2286V3.119H37.4126V0.940999H47.7536V3.119Z" fill="#3187ED"/>
</svg>
