<svg width="189" height="19" viewBox="0 0 189 19" fill="none" xmlns="http://www.w3.org/2000/svg">
<path d="M2.024 2.786V6.98H6.596V8.33H2.024V12.65H7.136V14H0.386V1.436H7.136V2.786H2.024ZM14.4205 3.956C15.6205 3.956 16.5925 4.322 17.3365 5.054C18.0805 5.774 18.4525 6.818 18.4525 8.186V14H16.8325V8.42C16.8325 7.436 16.5865 6.686 16.0945 6.17C15.6025 5.642 14.9305 5.378 14.0785 5.378C13.2145 5.378 12.5245 5.648 12.0085 6.188C11.5045 6.728 11.2525 7.514 11.2525 8.546V14H9.61452V4.136H11.2525V5.54C11.5765 5.036 12.0145 4.646 12.5665 4.37C13.1305 4.094 13.7485 3.956 14.4205 3.956ZM23.1262 5.486V11.3C23.1262 11.78 23.2282 12.122 23.4322 12.326C23.6362 12.518 23.9902 12.614 24.4942 12.614H25.7002V14H24.2242C23.3122 14 22.6282 13.79 22.1722 13.37C21.7162 12.95 21.4882 12.26 21.4882 11.3V5.486H20.2102V4.136H21.4882V1.652H23.1262V4.136H25.7002V5.486H23.1262ZM36.6848 8.69C36.6848 9.002 36.6668 9.332 36.6308 9.68H28.7468C28.8068 10.652 29.1368 11.414 29.7368 11.966C30.3488 12.506 31.0868 12.776 31.9508 12.776C32.6588 12.776 33.2468 12.614 33.7148 12.29C34.1948 11.954 34.5308 11.51 34.7228 10.958H36.4868C36.2228 11.906 35.6948 12.68 34.9028 13.28C34.1108 13.868 33.1268 14.162 31.9508 14.162C31.0148 14.162 30.1748 13.952 29.4308 13.532C28.6988 13.112 28.1228 12.518 27.7028 11.75C27.2828 10.97 27.0728 10.07 27.0728 9.05C27.0728 8.03 27.2768 7.136 27.6848 6.368C28.0928 5.6 28.6628 5.012 29.3948 4.604C30.1388 4.184 30.9908 3.974 31.9508 3.974C32.8868 3.974 33.7148 4.178 34.4348 4.586C35.1548 4.994 35.7068 5.558 36.0908 6.278C36.4868 6.986 36.6848 7.79 36.6848 8.69ZM34.9928 8.348C34.9928 7.724 34.8548 7.19 34.5788 6.746C34.3028 6.29 33.9248 5.948 33.4448 5.72C32.9768 5.48 32.4548 5.36 31.8788 5.36C31.0508 5.36 30.3428 5.624 29.7548 6.152C29.1788 6.68 28.8488 7.412 28.7648 8.348H34.9928ZM40.4849 5.738C40.7729 5.174 41.1809 4.736 41.7089 4.424C42.2489 4.112 42.9029 3.956 43.6709 3.956V5.648H43.2389C41.4029 5.648 40.4849 6.644 40.4849 8.636V14H38.8469V4.136H40.4849V5.738ZM58.8566 4.136L52.9166 18.644H51.2246L53.1686 13.892L49.1906 4.136H51.0086L54.1046 12.128L57.1646 4.136H58.8566ZM64.8052 14.162C63.8812 14.162 63.0412 13.952 62.2852 13.532C61.5412 13.112 60.9532 12.518 60.5212 11.75C60.1012 10.97 59.8912 10.07 59.8912 9.05C59.8912 8.042 60.1072 7.154 60.5392 6.386C60.9832 5.606 61.5832 5.012 62.3392 4.604C63.0952 4.184 63.9412 3.974 64.8772 3.974C65.8132 3.974 66.6592 4.184 67.4152 4.604C68.1712 5.012 68.7652 5.6 69.1972 6.368C69.6412 7.136 69.8632 8.03 69.8632 9.05C69.8632 10.07 69.6352 10.97 69.1792 11.75C68.7352 12.518 68.1292 13.112 67.3612 13.532C66.5932 13.952 65.7412 14.162 64.8052 14.162ZM64.8052 12.722C65.3932 12.722 65.9452 12.584 66.4612 12.308C66.9772 12.032 67.3912 11.618 67.7032 11.066C68.0272 10.514 68.1892 9.842 68.1892 9.05C68.1892 8.258 68.0332 7.586 67.7212 7.034C67.4092 6.482 67.0012 6.074 66.4972 5.81C65.9932 5.534 65.4472 5.396 64.8592 5.396C64.2592 5.396 63.7072 5.534 63.2032 5.81C62.7112 6.074 62.3152 6.482 62.0152 7.034C61.7152 7.586 61.5652 8.258 61.5652 9.05C61.5652 9.854 61.7092 10.532 61.9972 11.084C62.2972 11.636 62.6932 12.05 63.1852 12.326C63.6772 12.59 64.2172 12.722 64.8052 12.722ZM80.7649 4.136V14H79.1269V12.542C78.8149 13.046 78.3769 13.442 77.8129 13.73C77.2609 14.006 76.6489 14.144 75.9769 14.144C75.2089 14.144 74.5189 13.988 73.9069 13.676C73.2949 13.352 72.8089 12.872 72.4489 12.236C72.1009 11.6 71.9269 10.826 71.9269 9.914V4.136H73.5469V9.698C73.5469 10.67 73.7929 11.42 74.2849 11.948C74.7769 12.464 75.4489 12.722 76.3009 12.722C77.1769 12.722 77.8669 12.452 78.3709 11.912C78.8749 11.372 79.1269 10.586 79.1269 9.554V4.136H80.7649ZM85.1685 5.738C85.4565 5.174 85.8645 4.736 86.3925 4.424C86.9325 4.112 87.5865 3.956 88.3545 3.956V5.648H87.9225C86.0865 5.648 85.1685 6.644 85.1685 8.636V14H83.5305V4.136H85.1685V5.738ZM104.044 8.69C104.044 9.002 104.026 9.332 103.99 9.68H96.1062C96.1662 10.652 96.4962 11.414 97.0962 11.966C97.7082 12.506 98.4462 12.776 99.3102 12.776C100.018 12.776 100.606 12.614 101.074 12.29C101.554 11.954 101.89 11.51 102.082 10.958H103.846C103.582 11.906 103.054 12.68 102.262 13.28C101.47 13.868 100.486 14.162 99.3102 14.162C98.3742 14.162 97.5342 13.952 96.7902 13.532C96.0582 13.112 95.4822 12.518 95.0622 11.75C94.6422 10.97 94.4322 10.07 94.4322 9.05C94.4322 8.03 94.6362 7.136 95.0442 6.368C95.4522 5.6 96.0222 5.012 96.7542 4.604C97.4982 4.184 98.3502 3.974 99.3102 3.974C100.246 3.974 101.074 4.178 101.794 4.586C102.514 4.994 103.066 5.558 103.45 6.278C103.846 6.986 104.044 7.79 104.044 8.69ZM102.352 8.348C102.352 7.724 102.214 7.19 101.938 6.746C101.662 6.29 101.284 5.948 100.804 5.72C100.336 5.48 99.8142 5.36 99.2382 5.36C98.4102 5.36 97.7022 5.624 97.1142 6.152C96.5382 6.68 96.2082 7.412 96.1242 8.348H102.352ZM118.068 3.956C118.836 3.956 119.52 4.118 120.12 4.442C120.72 4.754 121.194 5.228 121.542 5.864C121.89 6.5 122.064 7.274 122.064 8.186V14H120.444V8.42C120.444 7.436 120.198 6.686 119.706 6.17C119.226 5.642 118.572 5.378 117.744 5.378C116.892 5.378 116.214 5.654 115.71 6.206C115.206 6.746 114.954 7.532 114.954 8.564V14H113.334V8.42C113.334 7.436 113.088 6.686 112.596 6.17C112.116 5.642 111.462 5.378 110.634 5.378C109.782 5.378 109.104 5.654 108.6 6.206C108.096 6.746 107.844 7.532 107.844 8.564V14H106.206V4.136H107.844V5.558C108.168 5.042 108.6 4.646 109.14 4.37C109.692 4.094 110.298 3.956 110.958 3.956C111.786 3.956 112.518 4.142 113.154 4.514C113.79 4.886 114.264 5.432 114.576 6.152C114.852 5.456 115.308 4.916 115.944 4.532C116.58 4.148 117.288 3.956 118.068 3.956ZM124.139 9.032C124.139 8.024 124.343 7.142 124.751 6.386C125.159 5.618 125.717 5.024 126.425 4.604C127.145 4.184 127.943 3.974 128.819 3.974C129.683 3.974 130.433 4.16 131.069 4.532C131.705 4.904 132.179 5.372 132.491 5.936V4.136H134.147V14H132.491V12.164C132.167 12.74 131.681 13.22 131.033 13.604C130.397 13.976 129.653 14.162 128.801 14.162C127.925 14.162 127.133 13.946 126.425 13.514C125.717 13.082 125.159 12.476 124.751 11.696C124.343 10.916 124.139 10.028 124.139 9.032ZM132.491 9.05C132.491 8.306 132.341 7.658 132.041 7.106C131.741 6.554 131.333 6.134 130.817 5.846C130.313 5.546 129.755 5.396 129.143 5.396C128.531 5.396 127.973 5.54 127.469 5.828C126.965 6.116 126.563 6.536 126.263 7.088C125.963 7.64 125.813 8.288 125.813 9.032C125.813 9.788 125.963 10.448 126.263 11.012C126.563 11.564 126.965 11.99 127.469 12.29C127.973 12.578 128.531 12.722 129.143 12.722C129.755 12.722 130.313 12.578 130.817 12.29C131.333 11.99 131.741 11.564 132.041 11.012C132.341 10.448 132.491 9.794 132.491 9.05ZM137.761 2.534C137.449 2.534 137.185 2.426 136.969 2.21C136.753 1.994 136.645 1.73 136.645 1.418C136.645 1.106 136.753 0.842 136.969 0.625999C137.185 0.409999 137.449 0.301999 137.761 0.301999C138.061 0.301999 138.313 0.409999 138.517 0.625999C138.733 0.842 138.841 1.106 138.841 1.418C138.841 1.73 138.733 1.994 138.517 2.21C138.313 2.426 138.061 2.534 137.761 2.534ZM138.553 4.136V14H136.915V4.136H138.553ZM142.983 0.68V14H141.345V0.68H142.983ZM155.47 3.956C156.214 3.956 156.886 4.118 157.486 4.442C158.086 4.754 158.554 5.228 158.89 5.864C159.238 6.5 159.412 7.274 159.412 8.186V14H157.792V8.42C157.792 7.436 157.546 6.686 157.054 6.17C156.562 5.642 155.89 5.378 155.038 5.378C154.174 5.378 153.484 5.648 152.968 6.188C152.464 6.728 152.212 7.514 152.212 8.546V14H150.574V0.68H152.212V5.54C152.536 5.036 152.98 4.646 153.544 4.37C154.12 4.094 154.762 3.956 155.47 3.956ZM171.087 8.69C171.087 9.002 171.069 9.332 171.033 9.68H163.149C163.209 10.652 163.539 11.414 164.139 11.966C164.751 12.506 165.489 12.776 166.353 12.776C167.061 12.776 167.649 12.614 168.117 12.29C168.597 11.954 168.933 11.51 169.125 10.958H170.889C170.625 11.906 170.097 12.68 169.305 13.28C168.513 13.868 167.529 14.162 166.353 14.162C165.417 14.162 164.577 13.952 163.833 13.532C163.101 13.112 162.525 12.518 162.105 11.75C161.685 10.97 161.475 10.07 161.475 9.05C161.475 8.03 161.679 7.136 162.087 6.368C162.495 5.6 163.065 5.012 163.797 4.604C164.541 4.184 165.393 3.974 166.353 3.974C167.289 3.974 168.117 4.178 168.837 4.586C169.557 4.994 170.109 5.558 170.493 6.278C170.889 6.986 171.087 7.79 171.087 8.69ZM169.395 8.348C169.395 7.724 169.257 7.19 168.981 6.746C168.705 6.29 168.327 5.948 167.847 5.72C167.379 5.48 166.857 5.36 166.281 5.36C165.453 5.36 164.745 5.624 164.157 6.152C163.581 6.68 163.251 7.412 163.167 8.348H169.395ZM174.887 5.738C175.175 5.174 175.583 4.736 176.111 4.424C176.651 4.112 177.305 3.956 178.073 3.956V5.648H177.641C175.805 5.648 174.887 6.644 174.887 8.636V14H173.249V4.136H174.887V5.738ZM188.964 8.69C188.964 9.002 188.946 9.332 188.91 9.68H181.026C181.086 10.652 181.416 11.414 182.016 11.966C182.628 12.506 183.366 12.776 184.23 12.776C184.938 12.776 185.526 12.614 185.994 12.29C186.474 11.954 186.81 11.51 187.002 10.958H188.766C188.502 11.906 187.974 12.68 187.182 13.28C186.39 13.868 185.406 14.162 184.23 14.162C183.294 14.162 182.454 13.952 181.71 13.532C180.978 13.112 180.402 12.518 179.982 11.75C179.562 10.97 179.352 10.07 179.352 9.05C179.352 8.03 179.556 7.136 179.964 6.368C180.372 5.6 180.942 5.012 181.674 4.604C182.418 4.184 183.27 3.974 184.23 3.974C185.166 3.974 185.994 4.178 186.714 4.586C187.434 4.994 187.986 5.558 188.37 6.278C188.766 6.986 188.964 7.79 188.964 8.69ZM187.272 8.348C187.272 7.724 187.134 7.19 186.858 6.746C186.582 6.29 186.204 5.948 185.724 5.72C185.256 5.48 184.734 5.36 184.158 5.36C183.33 5.36 182.622 5.624 182.034 6.152C181.458 6.68 181.128 7.412 181.044 8.348H187.272Z" fill="#8D8D8D"/>
</svg>
