<svg width="22" height="19" viewBox="0 0 22 19" fill="none" xmlns="http://www.w3.org/2000/svg">
<path d="M21.5832 6.4999C21.7508 6.35459 22 6.49053 22 6.72021V16.3062C22 17.5483 21.0762 18.5562 19.9375 18.5562H2.0625C0.923828 18.5562 0 17.5483 0 16.3062V6.7249C0 6.49053 0.244922 6.35928 0.416797 6.50459C1.3793 7.32021 2.65547 8.35615 7.03828 11.8296C7.94492 12.5515 9.47461 14.0702 11 14.0608C12.534 14.0749 14.0937 12.5233 14.966 11.8296C19.3488 8.35615 20.6207 7.31553 21.5832 6.4999ZM11 12.5562C11.9969 12.5749 13.432 11.1874 14.1539 10.6155C19.8559 6.10147 20.2898 5.70771 21.6047 4.58271C21.8539 4.37178 22 4.04365 22 3.69678V2.80615C22 1.56396 21.0762 0.556152 19.9375 0.556152H2.0625C0.923828 0.556152 0 1.56396 0 2.80615V3.69678C0 4.04365 0.146094 4.36709 0.395312 4.58271C1.71016 5.70303 2.14414 6.10147 7.84609 10.6155C8.56797 11.1874 10.0031 12.5749 11 12.5562Z" fill="white"/>
</svg>
