<svg width="48" height="51" viewBox="0 0 48 51" fill="none" xmlns="http://www.w3.org/2000/svg">
<path d="M18 20.7188C18 18.9587 16.6566 17.5312 15 17.5312H13.5C10.1859 17.5312 7.5 20.3851 7.5 23.9062V28.6875C7.5 32.2087 10.1859 35.0625 13.5 35.0625H15C16.6566 35.0625 18 33.6351 18 31.875V20.7188ZM34.5 35.0625C37.8141 35.0625 40.5 32.2087 40.5 28.6875V23.9062C40.5 20.3851 37.8141 17.5312 34.5 17.5312H33C31.3434 17.5312 30 18.9587 30 20.7188V31.875C30 33.6351 31.3434 35.0625 33 35.0625H34.5ZM24 0C10.6106 0 0.429375 11.8366 0 25.5V27.0938C0 27.9743 0.67125 28.6875 1.5 28.6875H3C3.82875 28.6875 4.5 27.9743 4.5 27.0938V25.5C4.5 14.0758 13.2478 4.78125 24 4.78125C34.7522 4.78125 43.5 14.0758 43.5 25.5H43.4888C43.4963 25.7421 43.5 42.0073 43.5 42.0073C43.5 44.3331 41.7253 46.2188 39.5363 46.2188H30C30 43.5781 27.9853 41.4375 25.5 41.4375H22.5C20.0147 41.4375 18 43.5781 18 46.2188C18 48.8594 20.0147 51 22.5 51H39.5363C44.2106 51 48 46.9738 48 42.0073V25.5C47.5706 11.8366 37.3894 0 24 0Z" fill="#8D8D8D"/>
</svg>
