<svg width="24" height="25" viewBox="0 0 24 25" fill="none" xmlns="http://www.w3.org/2000/svg">
<path d="M23.6736 20.7516L18.9998 16.0781C18.7889 15.8672 18.5029 15.75 18.2029 15.75H17.4388C18.7326 14.0953 19.5014 12.0141 19.5014 9.75C19.5014 4.36406 15.137 0 9.75071 0C4.36438 0 0 4.36406 0 9.75C0 15.1359 4.36438 19.5 9.75071 19.5C12.0149 19.5 14.0963 18.7313 15.7512 17.4375V18.2016C15.7512 18.5016 15.8683 18.7875 16.0793 18.9984L20.7531 23.6719C21.1937 24.1125 21.9063 24.1125 22.3423 23.6719L23.6689 22.3453C24.1096 21.9047 24.1096 21.1922 23.6736 20.7516ZM9.75071 15.75C6.43641 15.75 3.75027 13.0688 3.75027 9.75C3.75027 6.43594 6.43172 3.75 9.75071 3.75C13.065 3.75 15.7512 6.43125 15.7512 9.75C15.7512 13.0641 13.0697 15.75 9.75071 15.75Z" fill="#3187ED"/>
</svg>
