<svg width="95" height="14" viewBox="0 0 95 14" fill="none" xmlns="http://www.w3.org/2000/svg">
<path d="M4.472 13.126C3.632 13.126 2.876 12.982 2.204 12.694C1.532 12.394 1.004 11.974 0.62 11.434C0.236 10.894 0.044 10.264 0.044 9.544H2.24C2.288 10.084 2.498 10.528 2.87 10.876C3.254 11.224 3.788 11.398 4.472 11.398C5.18 11.398 5.732 11.23 6.128 10.894C6.524 10.546 6.722 10.102 6.722 9.562C6.722 9.142 6.596 8.8 6.344 8.536C6.104 8.272 5.798 8.068 5.426 7.924C5.066 7.78 4.562 7.624 3.914 7.456C3.098 7.24 2.432 7.024 1.916 6.808C1.412 6.58 0.98 6.232 0.62 5.764C0.26 5.296 0.08 4.672 0.08 3.892C0.08 3.172 0.26 2.542 0.62 2.002C0.98 1.462 1.484 1.048 2.132 0.76C2.78 0.471999 3.53 0.327999 4.382 0.327999C5.594 0.327999 6.584 0.633999 7.352 1.246C8.132 1.846 8.564 2.674 8.648 3.73H6.38C6.344 3.274 6.128 2.884 5.732 2.56C5.336 2.236 4.814 2.074 4.166 2.074C3.578 2.074 3.098 2.224 2.726 2.524C2.354 2.824 2.168 3.256 2.168 3.82C2.168 4.204 2.282 4.522 2.51 4.774C2.75 5.014 3.05 5.206 3.41 5.35C3.77 5.494 4.262 5.65 4.886 5.818C5.714 6.046 6.386 6.274 6.902 6.502C7.43 6.73 7.874 7.084 8.234 7.564C8.606 8.032 8.792 8.662 8.792 9.454C8.792 10.09 8.618 10.69 8.27 11.254C7.934 11.818 7.436 12.274 6.776 12.622C6.128 12.958 5.36 13.126 4.472 13.126ZM13.2473 0.489999V8.464C13.2473 9.412 13.4933 10.126 13.9853 10.606C14.4893 11.086 15.1853 11.326 16.0733 11.326C16.9733 11.326 17.6693 11.086 18.1613 10.606C18.6653 10.126 18.9173 9.412 18.9173 8.464V0.489999H20.9693V8.428C20.9693 9.448 20.7473 10.312 20.3033 11.02C19.8593 11.728 19.2653 12.256 18.5213 12.604C17.7773 12.952 16.9553 13.126 16.0553 13.126C15.1553 13.126 14.3333 12.952 13.5893 12.604C12.8573 12.256 12.2753 11.728 11.8433 11.02C11.4113 10.312 11.1953 9.448 11.1953 8.428V0.489999H13.2473ZM30.337 6.574C31.009 6.694 31.579 7.048 32.047 7.636C32.515 8.224 32.749 8.89 32.749 9.634C32.749 10.27 32.581 10.846 32.245 11.362C31.921 11.866 31.447 12.268 30.823 12.568C30.199 12.856 29.473 13 28.645 13H23.641V0.489999H28.411C29.263 0.489999 29.995 0.633999 30.607 0.922C31.219 1.21 31.681 1.6 31.993 2.092C32.305 2.572 32.461 3.112 32.461 3.712C32.461 4.432 32.269 5.032 31.885 5.512C31.501 5.992 30.985 6.346 30.337 6.574ZM25.693 5.746H28.231C28.903 5.746 29.425 5.596 29.797 5.296C30.181 4.984 30.373 4.54 30.373 3.964C30.373 3.4 30.181 2.962 29.797 2.65C29.425 2.326 28.903 2.164 28.231 2.164H25.693V5.746ZM28.465 11.326C29.161 11.326 29.707 11.158 30.103 10.822C30.499 10.486 30.697 10.018 30.697 9.418C30.697 8.806 30.487 8.32 30.067 7.96C29.647 7.6 29.089 7.42 28.393 7.42H25.693V11.326H28.465ZM39.1009 13.126C38.2609 13.126 37.5049 12.982 36.8329 12.694C36.1609 12.394 35.6329 11.974 35.2489 11.434C34.8649 10.894 34.6729 10.264 34.6729 9.544H36.8689C36.9169 10.084 37.1269 10.528 37.4989 10.876C37.8829 11.224 38.4169 11.398 39.1009 11.398C39.8089 11.398 40.3609 11.23 40.7569 10.894C41.1529 10.546 41.3509 10.102 41.3509 9.562C41.3509 9.142 41.2249 8.8 40.9729 8.536C40.7329 8.272 40.4269 8.068 40.0549 7.924C39.6949 7.78 39.1909 7.624 38.5429 7.456C37.7269 7.24 37.0609 7.024 36.5449 6.808C36.0409 6.58 35.6089 6.232 35.2489 5.764C34.8889 5.296 34.7089 4.672 34.7089 3.892C34.7089 3.172 34.8889 2.542 35.2489 2.002C35.6089 1.462 36.1129 1.048 36.7609 0.76C37.4089 0.471999 38.1589 0.327999 39.0109 0.327999C40.2229 0.327999 41.2129 0.633999 41.9809 1.246C42.7609 1.846 43.1929 2.674 43.2769 3.73H41.0089C40.9729 3.274 40.7569 2.884 40.3609 2.56C39.9649 2.236 39.4429 2.074 38.7949 2.074C38.2069 2.074 37.7269 2.224 37.3549 2.524C36.9829 2.824 36.7969 3.256 36.7969 3.82C36.7969 4.204 36.9109 4.522 37.1389 4.774C37.3789 5.014 37.6789 5.206 38.0389 5.35C38.3989 5.494 38.8909 5.65 39.5149 5.818C40.3429 6.046 41.0149 6.274 41.5309 6.502C42.0589 6.73 42.5029 7.084 42.8629 7.564C43.2349 8.032 43.4209 8.662 43.4209 9.454C43.4209 10.09 43.2469 10.69 42.8989 11.254C42.5629 11.818 42.0649 12.274 41.4049 12.622C40.7569 12.958 39.9889 13.126 39.1009 13.126ZM45.1582 6.718C45.1582 5.494 45.4402 4.396 46.0042 3.424C46.5802 2.452 47.3542 1.696 48.3262 1.156C49.3102 0.603999 50.3842 0.327999 51.5482 0.327999C52.8802 0.327999 54.0622 0.657999 55.0942 1.318C56.1382 1.966 56.8942 2.89 57.3622 4.09H54.8962C54.5722 3.43 54.1222 2.938 53.5462 2.614C52.9702 2.29 52.3042 2.128 51.5482 2.128C50.7202 2.128 49.9822 2.314 49.3342 2.686C48.6862 3.058 48.1762 3.592 47.8042 4.288C47.4442 4.984 47.2642 5.794 47.2642 6.718C47.2642 7.642 47.4442 8.452 47.8042 9.148C48.1762 9.844 48.6862 10.384 49.3342 10.768C49.9822 11.14 50.7202 11.326 51.5482 11.326C52.3042 11.326 52.9702 11.164 53.5462 10.84C54.1222 10.516 54.5722 10.024 54.8962 9.364H57.3622C56.8942 10.564 56.1382 11.488 55.0942 12.136C54.0622 12.784 52.8802 13.108 51.5482 13.108C50.3722 13.108 49.2982 12.838 48.3262 12.298C47.3542 11.746 46.5802 10.984 46.0042 10.012C45.4402 9.04 45.1582 7.942 45.1582 6.718ZM66.2621 13L63.3821 7.996H61.8161V13H59.7641V0.489999H64.0841C65.0441 0.489999 65.8541 0.657999 66.5141 0.993999C67.1861 1.33 67.6841 1.78 68.0081 2.344C68.3441 2.908 68.5121 3.538 68.5121 4.234C68.5121 5.05 68.2721 5.794 67.7921 6.466C67.3241 7.126 66.5981 7.576 65.6141 7.816L68.7101 13H66.2621ZM61.8161 6.358H64.0841C64.8521 6.358 65.4281 6.166 65.8121 5.782C66.2081 5.398 66.4061 4.882 66.4061 4.234C66.4061 3.586 66.2141 3.082 65.8301 2.722C65.4461 2.35 64.8641 2.164 64.0841 2.164H61.8161V6.358ZM73.1891 0.489999V13H71.1371V0.489999H73.1891ZM82.5792 6.574C83.2512 6.694 83.8212 7.048 84.2892 7.636C84.7572 8.224 84.9912 8.89 84.9912 9.634C84.9912 10.27 84.8232 10.846 84.4872 11.362C84.1632 11.866 83.6892 12.268 83.0652 12.568C82.4412 12.856 81.7152 13 80.8872 13H75.8832V0.489999H80.6532C81.5052 0.489999 82.2372 0.633999 82.8492 0.922C83.4612 1.21 83.9232 1.6 84.2352 2.092C84.5472 2.572 84.7032 3.112 84.7032 3.712C84.7032 4.432 84.5112 5.032 84.1272 5.512C83.7432 5.992 83.2272 6.346 82.5792 6.574ZM77.9352 5.746H80.4732C81.1452 5.746 81.6672 5.596 82.0392 5.296C82.4232 4.984 82.6152 4.54 82.6152 3.964C82.6152 3.4 82.4232 2.962 82.0392 2.65C81.6672 2.326 81.1452 2.164 80.4732 2.164H77.9352V5.746ZM80.7072 11.326C81.4032 11.326 81.9492 11.158 82.3452 10.822C82.7412 10.486 82.9392 10.018 82.9392 9.418C82.9392 8.806 82.7292 8.32 82.3092 7.96C81.8892 7.6 81.3312 7.42 80.6352 7.42H77.9352V11.326H80.7072ZM89.2731 2.146V5.818H93.5931V7.492H89.2731V11.326H94.1331V13H87.2211V0.471999H94.1331V2.146H89.2731Z" fill="white"/>
</svg>
