<svg width="116" height="102" viewBox="0 0 116 102" fill="none" xmlns="http://www.w3.org/2000/svg">
<path d="M32.2222 89.25C27.0667 89.25 21.9111 84.7875 19.3333 82.875C6.44444 73.95 2.57778 70.7625 0 68.85V95.625C0 99.1452 2.8859 102 6.44444 102H58C61.5585 102 64.4444 99.1452 64.4444 95.625V68.85C61.8667 70.7625 58 73.95 45.1111 82.875C42.5333 84.7875 37.3778 89.25 32.2222 89.25ZM58 51H6.44444C2.8859 51 0 53.8548 0 57.375V60.5625C5.15556 64.3875 4.51111 64.3875 23.2 77.775C25.1333 79.05 29 82.875 32.2222 82.875C35.4444 82.875 39.3111 79.05 41.2444 78.4125C59.9333 65.025 59.2889 65.025 64.4444 61.2V57.375C64.4444 53.8548 61.5585 51 58 51ZM109.556 31.875H45.1111C41.5526 31.875 38.6667 34.7298 38.6667 38.25V44.625H58C64.6881 44.625 70.2022 49.6891 70.8305 56.1438L70.8889 56.1V82.875H109.556C113.114 82.875 116 80.0202 116 76.5V38.25C116 34.7298 113.114 31.875 109.556 31.875ZM103.111 57.375H90.2222V44.625H103.111V57.375ZM32.2222 38.25C32.2222 31.2196 38.0041 25.5 45.1111 25.5H90.2222V6.375C90.2222 2.8548 87.3363 0 83.7778 0H19.3333C15.7748 0 12.8889 2.8548 12.8889 6.375V44.625H32.2222V38.25Z" fill="white" fill-opacity="0.37"/>
</svg>
